HIERARCHY
ROOT Hips
{
  OFFSET 5.72205e-005 65.662 3.42586
  CHANNELS 6 Xposition Yposition Zposition Zrotation Xrotation Yrotation
  JOINT Chest
  {
    OFFSET 0 8.7983 -4.7612
    CHANNELS 3 Zrotation Xrotation Yrotation
    JOINT Chest2
    {
      OFFSET 0 8.0291 0.4195
      CHANNELS 3 Zrotation Xrotation Yrotation
      JOINT Chest3
      {
        OFFSET 0 9.9351 -2.2114
        CHANNELS 3 Zrotation Xrotation Yrotation
        JOINT Neck
        {
          OFFSET 0 22.3885 -0.4656
          CHANNELS 3 Zrotation Xrotation Yrotation
          JOINT Head
          {
            OFFSET -0.0001 12.643 3.4389
            CHANNELS 3 Zrotation Xrotation Yrotation
            End Site
            {
              OFFSET 0.0001 17.6655 0.5274
            }
          }
        }
        JOINT LeftCollar
        {
          OFFSET 2.2603 21.606 7.4023
          CHANNELS 3 Zrotation Xrotation Yrotation
          JOINT LeftShoulder
          {
            OFFSET 13.5163 -1.1332 -5.0146
            CHANNELS 3 Zrotation Xrotation Yrotation
            JOINT LeftElbow
            {
              OFFSET -0.0995 -28.05 -0.2431
              CHANNELS 3 Zrotation Xrotation Yrotation
              JOINT LeftWrist
              {
                OFFSET 0.0679 -23.3996 -0.1402
                CHANNELS 3 Zrotation Xrotation Yrotation
                JOINT LeftFinger1
                {
                  OFFSET 0.7932 -9.069 2.5189
                  CHANNELS 3 Zrotation Xrotation Yrotation
                  JOINT LeftFinger11
                  {
                    OFFSET -0.8272 -3.3923 0.5977
                    CHANNELS 3 Zrotation Xrotation Yrotation
                    JOINT LeftFinger12
                    {
                      OFFSET -0.5649 -2.3158 0.4082
                      CHANNELS 3 Zrotation Xrotation Yrotation
                      End Site
                      {
                        OFFSET -0.4919 -1.6479 0.2673
                      }
                    }
                  }
                }
                JOINT LeftFinger2
                {
                  OFFSET 0.9159 -9.2044 0.2193
                  CHANNELS 3 Zrotation Xrotation Yrotation
                  JOINT LeftFinger21
                  {
                    OFFSET 0.0117 -4.1944 -0.0248
                    CHANNELS 3 Zrotation Xrotation Yrotation
                    JOINT LeftFinger22
                    {
                      OFFSET 0.0071 -2.3249 -0.0142
                      CHANNELS 3 Zrotation Xrotation Yrotation
                      End Site
                      {
                        OFFSET -0.1475 -2.0882 0.0028
                      }
                    }
                  }
                }
                JOINT LeftFinger3
                {
                  OFFSET 0.6113 -8.7231 -2.0637
                  CHANNELS 3 Zrotation Xrotation Yrotation
                  JOINT LeftFinger31
                  {
                    OFFSET -0.1927 -3.8059 -0.2383
                    CHANNELS 3 Zrotation Xrotation Yrotation
                    JOINT LeftFinger32
                    {
                      OFFSET -0.1091 -2.1688 -0.1362
                      CHANNELS 3 Zrotation Xrotation Yrotation
                      End Site
                      {
                        OFFSET -0.2358 -1.9176 -0.0906
                      }
                    }
                  }
                }
                JOINT LeftFinger4
                {
                  OFFSET -0.6151 -8.0947 -3.5641
                  CHANNELS 3 Zrotation Xrotation Yrotation
                  JOINT LeftFinger41
                  {
                    OFFSET -0.4882 -2.341 -0.6462
                    CHANNELS 3 Zrotation Xrotation Yrotation
                    JOINT LeftFinger42
                    {
                      OFFSET -0.3575 -1.7167 -0.4742
                      CHANNELS 3 Zrotation Xrotation Yrotation
                      End Site
                      {
                        OFFSET -0.4187 -1.5237 -0.3496
                      }
                    }
                  }
                }
                JOINT LeftFinger0
                {
                  OFFSET -1.42 -1.8761 1.4223
                  CHANNELS 3 Zrotation Xrotation Yrotation
                  JOINT LeftFinger01
                  {
                    OFFSET -1.1471 -3.4929 2.6334
                    CHANNELS 3 Zrotation Xrotation Yrotation
                    JOINT LeftFinger02
                    {
                      OFFSET -0.823 -2.3 1.6571
                      CHANNELS 3 Zrotation Xrotation Yrotation
                      End Site
                      {
                        OFFSET -0.5822 -1.6914 1.1582
                      }
                    }
                  }
                }
              }
            }
          }
        }
        JOINT RightCollar
        {
          OFFSET -2.2603 21.606 7.4023
          CHANNELS 3 Zrotation Xrotation Yrotation
          JOINT RightShoulder
          {
            OFFSET -13.5187 -1.1334 -5.0155
            CHANNELS 3 Zrotation Xrotation Yrotation
            JOINT RightElbow
            {
              OFFSET 0.0994 -28.0499 -0.2431
              CHANNELS 3 Zrotation Xrotation Yrotation
              JOINT RightWrist
              {
                OFFSET -0.0679 -23.3996 -0.1402
                CHANNELS 3 Zrotation Xrotation Yrotation
                JOINT RightFinger1
                {
                  OFFSET -0.7932 -9.0691 2.5189
                  CHANNELS 3 Zrotation Xrotation Yrotation
                  JOINT RightFinger11
                  {
                    OFFSET 0.8272 -3.3923 0.5977
                    CHANNELS 3 Zrotation Xrotation Yrotation
                    JOINT RightFinger12
                    {
                      OFFSET 0.565 -2.3158 0.4082
                      CHANNELS 3 Zrotation Xrotation Yrotation
                      End Site
                      {
                        OFFSET 0.4919 -1.6479 0.2673
                      }
                    }
                  }
                }
                JOINT RightFinger2
                {
                  OFFSET -0.916 -9.2044 0.2193
                  CHANNELS 3 Zrotation Xrotation Yrotation
                  JOINT RightFinger21
                  {
                    OFFSET -0.0117 -4.1944 -0.0248
                    CHANNELS 3 Zrotation Xrotation Yrotation
                    JOINT RightFinger22
                    {
                      OFFSET -0.0071 -2.3249 -0.0142
                      CHANNELS 3 Zrotation Xrotation Yrotation
                      End Site
                      {
                        OFFSET 0.1475 -2.0882 0.0028
                      }
                    }
                  }
                }
                JOINT RightFinger3
                {
                  OFFSET -0.6113 -8.7231 -2.0637
                  CHANNELS 3 Zrotation Xrotation Yrotation
                  JOINT RightFinger31
                  {
                    OFFSET 0.1927 -3.8059 -0.2383
                    CHANNELS 3 Zrotation Xrotation Yrotation
                    JOINT RightFinger32
                    {
                      OFFSET 0.1091 -2.1688 -0.1362
                      CHANNELS 3 Zrotation Xrotation Yrotation
                      End Site
                      {
                        OFFSET 0.2358 -1.9176 -0.0906
                      }
                    }
                  }
                }
                JOINT RightFinger4
                {
                  OFFSET 0.6151 -8.0947 -3.564
                  CHANNELS 3 Zrotation Xrotation Yrotation
                  JOINT RightFinger41
                  {
                    OFFSET 0.4882 -2.341 -0.6462
                    CHANNELS 3 Zrotation Xrotation Yrotation
                    JOINT RightFinger42
                    {
                      OFFSET 0.3574 -1.7166 -0.4742
                      CHANNELS 3 Zrotation Xrotation Yrotation
                      End Site
                      {
                        OFFSET 0.4187 -1.5237 -0.3496
                      }
                    }
                  }
                }
                JOINT RightFinger0
                {
                  OFFSET 1.4199 -1.8761 1.4221
                  CHANNELS 3 Zrotation Xrotation Yrotation
                  JOINT RightFinger01
                  {
                    OFFSET 1.1472 -3.4929 2.6336
                    CHANNELS 3 Zrotation Xrotation Yrotation
                    JOINT RightFinger02
                    {
                      OFFSET 0.8229 -2.3 1.6571
                      CHANNELS 3 Zrotation Xrotation Yrotation
                      End Site
                      {
                        OFFSET 0.5822 -1.6914 1.1582
                      }
                    }
                  }
                }
              }
            }
          }
        }
      }
    }
  }
  JOINT RightHip
  {
    OFFSET -9.412 3.9771 -0.7758
    CHANNELS 3 Zrotation Xrotation Yrotation
    JOINT RightKnee
    {
      OFFSET -0.7531 -40.938 0
      CHANNELS 3 Zrotation Xrotation Yrotation
      JOINT RightAnkle
      {
        OFFSET 0 -40.1986 0
        CHANNELS 3 Zrotation Xrotation Yrotation
        JOINT RightToe
        {
          OFFSET 0 -4.4182 9.239
          CHANNELS 3 Zrotation Xrotation Yrotation
          End Site
          {
            OFFSET 0 0 6.1981
          }
        }
      }
    }
  }
  JOINT LeftHip
  {
    OFFSET 9.4119 3.9773 -0.7758
    CHANNELS 3 Zrotation Xrotation Yrotation
    JOINT LeftKnee
    {
      OFFSET 0.7532 -40.9383 0
      CHANNELS 3 Zrotation Xrotation Yrotation
      JOINT LeftAnkle
      {
        OFFSET 0 -40.1986 0
        CHANNELS 3 Zrotation Xrotation Yrotation
        JOINT LeftToe
        {
          OFFSET 0 -4.4182 9.239
          CHANNELS 3 Zrotation Xrotation Yrotation
          End Site
          {
            OFFSET 0 0 6.1981
          }
        }
      }
    }
  }
}
MOTION
Frames:	4
Frame Time:	0.0333333
10.0003 6.9188 0.748198 1.62246e-021 -1.18157e-011 1.71343e-008 0.167898 -0.00141975 -1.00968 0.335743 -0.00579781 -2.01935 0.335744 -0.00579786 -2.01936 0.0332347 -0.00874303 -5.69573e-005 17.4992 -3.8773 -22.1787 10.0004 -16.4829 -45.3273 47.6169 -5.51012 20.6471 171.092 -61.8006 -127.197 -13.8436 -20.7822 -33.6952 3.18055e-015 4.77083e-015 3.18055e-015 6.36111e-015 6.36111e-015 -3.18055e-015 7.95139e-016 1.59028e-015 -3.18055e-015 3.18055e-015 4.77083e-015 3.18055e-015 -0.0128489 0.00233512 8.80895e-005 1.85204e-005 -8.87884e-006 -6.78098e-006 3.18055e-015 4.77083e-015 3.18055e-015 -0.0161245 0.00300877 0.000858212 5.18814e-006 -4.77247e-007 1.43703e-006 3.18055e-015 4.77083e-015 3.18055e-015 -0.0125039 0.00309672 0.00280264 -7.95139e-016 -2.70347e-014 -0 3.18055e-015 4.77083e-015 3.18055e-015 6.36111e-015 6.36111e-015 -3.18055e-015 7.95139e-016 1.59028e-015 -3.18055e-015 -5.99955 -1.37472 6.40833 -100.951 -4.51518 -13.181 -117.62 -20.0548 -177.252 -23.751 -21.2886 15.1424 3.53113e-031 -3.18055e-015 6.36111e-015 -1.59028e-015 -9.54166e-015 6.36111e-015 2.1053e-007 -3.66102e-007 -1.85743e-006 3.53113e-031 -3.18055e-015 6.36111e-015 0.0129521 0.00232451 -9.05e-005 -7.53578e-007 -2.9667e-006 3.48492e-007 3.53113e-031 -3.18055e-015 6.36111e-015 0.0163083 0.00303361 -0.000879275 -5.27499e-006 2.32608e-006 2.43936e-006 3.53113e-031 -3.18055e-015 6.36111e-015 0.0145192 0.00366389 -0.00324892 -5.42834e-007 1.24595e-007 -1.50897e-006 3.53113e-031 -3.18055e-015 6.36111e-015 -1.59028e-015 -9.54166e-015 6.36111e-015 2.1053e-007 -3.66102e-007 -1.85743e-006 -36.8294 -47.9795 -8.37143 -175.648 23.289 171.621 -13.6723 20.7744 7.08237 4.33459e-006 -1.15601e-005 5.6161e-006 -26.7513 -47.4744 26.3124 175.341 24.5152 -169.691 -22.861 6.17613 68.8359 1.25055e-006 8.19138e-006 -4.95146e-006 
10.0003 6.9188 0.748198 1.62246e-021 -1.18157e-011 1.71343e-008 0.167898 -0.00141975 -1.00968 0.335743 -0.00579781 -2.01935 0.335744 -0.00579786 -2.01936 0.0332347 -0.00874303 -5.69573e-005 17.3624 -3.81879 -22.0029 9.90411 -16.4316 -45.3812 50.4147 -5.12244 20.2018 168.613 -61.4261 -126.796 -13.9626 -20.7859 -33.7193 2.38542e-015 4.77083e-015 -0 1.27222e-014 4.77083e-015 -6.36111e-015 9.54166e-015 7.95139e-015 -6.36111e-015 2.38542e-015 4.77083e-015 -0 -0.012833 0.00232922 7.86419e-005 1.27222e-014 -3.18055e-015 -6.36111e-015 2.38542e-015 4.77083e-015 -0 -0.0160886 0.00299744 0.000848857 1.11319e-014 3.18055e-015 3.18055e-015 2.38542e-015 4.77083e-015 -0 -0.0126152 0.00312791 0.00282413 -9.54166e-015 -1.27222e-014 -0 2.38542e-015 4.77083e-015 -0 1.27222e-014 4.77083e-015 -6.36111e-015 9.54166e-015 7.95139e-015 -6.36111e-015 -5.99955 -1.37472 6.40833 -100.951 -4.51518 -13.181 -117.62 -20.0548 -177.252 -22.5008 -21.0378 14.1918 -5.32544e-007 -1.64493e-006 -1.52245e-006 3.18055e-015 3.18055e-015 3.18055e-015 2.38542e-015 3.18055e-015 3.18055e-015 -5.32544e-007 -1.64493e-006 -1.52245e-006 0.0129571 0.00232078 -8.89823e-005 8.98642e-006 1.47728e-006 -4.12827e-006 -5.32544e-007 -1.64493e-006 -1.52245e-006 0.0163233 0.00302881 -0.000869845 -7.95139e-015 1.27222e-014 -6.36111e-015 -5.32544e-007 -1.64493e-006 -1.52245e-006 0.0145476 0.00366853 -0.00325275 -2.38542e-015 -3.18055e-015 -6.36111e-015 -5.32544e-007 -1.64493e-006 -1.52245e-006 3.18055e-015 3.18055e-015 3.18055e-015 2.38542e-015 3.18055e-015 3.18055e-015 -36.8294 -47.9795 -8.37143 -175.648 23.289 171.621 -13.6723 20.7744 7.08237 4.33459e-006 -1.15601e-005 5.6161e-006 -26.7513 -47.4744 26.3124 175.341 24.5152 -169.691 -22.861 6.17613 68.8359 1.25055e-006 8.19138e-006 -4.95146e-006 
10.0003 6.9188 0.748198 1.62246e-021 -1.18157e-011 1.71343e-008 0.167898 -0.00141975 -1.00968 0.335743 -0.00579781 -2.01935 0.335744 -0.00579786 -2.01936 0.0332347 -0.00874303 -5.69573e-005 17.2253 -3.76068 -21.8269 9.80787 -16.3801 -45.4351 53.2168 -4.74477 19.7362 166.159 -61.0474 -126.359 -14.0816 -20.7896 -33.7436 1.59703e-005 -1.41095e-005 -8.3823e-007 -1.59703e-005 1.41095e-005 8.38234e-007 1.3418e-005 -1.54613e-005 -1.58373e-006 1.59703e-005 -1.41095e-005 -8.3823e-007 -0.0127905 0.00232315 8.57003e-005 1.0207e-005 2.3088e-006 2.98243e-006 1.59703e-005 -1.41095e-005 -8.3823e-007 -0.0160484 0.00300666 0.000853253 -4.18401e-006 5.0518e-006 6.5612e-006 1.59703e-005 -1.41095e-005 -8.3823e-007 -0.0126598 0.00314277 0.00284029 -3.18055e-015 0 3.18055e-015 1.59703e-005 -1.41095e-005 -8.3823e-007 -1.59703e-005 1.41095e-005 8.38234e-007 1.3418e-005 -1.54613e-005 -1.58373e-006 -5.99955 -1.37472 6.40833 -100.951 -4.51518 -13.181 -117.62 -20.0548 -177.252 -21.247 -20.8062 13.2363 1.2278e-006 -1.93807e-006 7.9882e-007 -3.97569e-015 -3.18055e-015 -3.18055e-015 3.18055e-015 0 -0 1.2278e-006 -1.93807e-006 7.9882e-007 0.0129707 0.00231888 -8.95224e-005 5.22372e-007 1.24019e-006 1.53539e-006 1.2278e-006 -1.93807e-006 7.9882e-007 0.0163103 0.00303028 -0.000870331 -3.97569e-015 0 -0 1.2278e-006 -1.93807e-006 7.9882e-007 0.0145966 0.00367906 -0.00326675 -4.77083e-015 3.18055e-015 -3.18055e-015 1.2278e-006 -1.93807e-006 7.9882e-007 -3.97569e-015 -3.18055e-015 -3.18055e-015 3.18055e-015 0 -0 -36.8294 -47.9795 -8.37143 -175.648 23.289 171.621 -13.6723 20.7744 7.08237 4.33459e-006 -1.15601e-005 5.6161e-006 -26.7513 -47.4744 26.3124 175.341 24.5152 -169.691 -22.861 6.17613 68.8359 1.25055e-006 8.19138e-006 -4.95146e-006 
10.0003 6.9188 0.748198 1.62246e-021 -1.18157e-011 1.71343e-008 0.167898 -0.00141975 -1.00968 0.335743 -0.00579781 -2.01935 0.335744 -0.00579786 -2.01936 0.0332347 -0.00874303 -5.69573e-005 17.0881 -3.70297 -21.6508 9.71168 -16.3285 -45.4888 56.0437 -4.41633 19.2536 163.705 -60.7071 -125.91 -14.2005 -20.7933 -33.7678 -1.59028e-014 -1.59028e-015 3.18055e-015 -7.95139e-015 3.18055e-015 3.18055e-015 -1.27222e-014 -1.59028e-015 -3.18055e-015 -1.59028e-014 -1.59028e-015 3.18055e-015 -0.0127955 0.00231915 9.06665e-005 -9.54166e-015 0 6.36111e-015 -1.59028e-014 -1.59028e-015 3.18055e-015 -0.0161018 0.00300753 0.000866966 -8.06892e-007 -1.94561e-006 -5.52138e-006 -1.59028e-014 -1.59028e-015 3.18055e-015 -0.0126274 0.00313461 0.00284226 4.77083e-015 9.54166e-015 3.18055e-015 -1.59028e-014 -1.59028e-015 3.18055e-015 -7.95139e-015 3.18055e-015 3.18055e-015 -1.27222e-014 -1.59028e-015 -3.18055e-015 -5.99955 -1.37472 6.40833 -100.951 -4.51518 -13.181 -117.62 -20.0548 -177.252 -19.9904 -20.5942 12.2764 -7.95139e-016 -9.54166e-015 -0 4.77083e-015 -9.54166e-015 -6.36111e-015 -0 -6.36111e-015 -0 -7.95139e-016 -9.54166e-015 -0 0.0129501 0.00232104 -8.73917e-005 -2.38542e-015 -3.18055e-015 3.18055e-015 -7.95139e-016 -9.54166e-015 -0 0.0163676 0.00303967 -0.000874052 2.38542e-015 6.36111e-015 -6.36111e-015 -7.95139e-016 -9.54166e-015 -0 0.0146026 0.00368102 -0.00326673 1.59028e-015 -3.18055e-015 -3.18055e-015 -7.95139e-016 -9.54166e-015 -0 4.77083e-015 -9.54166e-015 -6.36111e-015 -0 -6.36111e-015 -0 -36.8294 -47.9795 -8.37143 -175.648 23.289 171.621 -13.6723 20.7744 7.08237 4.33459e-006 -1.15601e-005 5.6161e-006 -26.7513 -47.4744 26.3124 175.341 24.5152 -169.691 -22.861 6.17613 68.8359 1.25055e-006 8.19138e-006 -4.95146e-006 
